<?xml version="1.0" encoding="utf-8"?>
<!-- Generator: Adobe Illustrator 15.0.0, SVG Export Plug-In . SVG Version: 6.00 Build 0)  -->
<!DOCTYPE svg PUBLIC "-//W3C//DTD SVG 1.1//EN" "http://www.w3.org/Graphics/SVG/1.1/DTD/svg11.dtd">
<svg version="1.1" id="Layer_1" xmlns="http://www.w3.org/2000/svg" xmlns:xlink="http://www.w3.org/1999/xlink" x="0px" y="0px"
	 width="30px" height="30px" viewBox="10 10 30 30" enable-background="new 10 10 30 30" xml:space="preserve">
<g>
	<path fill="#777777" d="M39.431,23.531l-0.365-2.193c-0.03-0.18-0.095-0.349-0.176-0.509v-5.566
		c-0.001-0.514-0.352-1.088-0.818-1.335c-3.315-1.725-7.272-1.724-10.589,0.002c-0.463,0.246-0.814,0.819-0.816,1.335v5.565
		c-0.08,0.161-0.144,0.329-0.174,0.509l-0.365,2.194c-0.347,0.307-0.57,0.747-0.57,1.246v7.499c0,0.768,0.748,1.389,1.666,1.389
		c0.867,0,1.711-0.658,1.919-1.496l0.018-0.068c0.087-0.344,0.487-0.656,0.842-0.656h5.556c0.354,0,0.755,0.311,0.842,0.658
		l0.017,0.064c0.209,0.84,1.052,1.498,1.919,1.498c0.918,0,1.666-0.621,1.666-1.389v-7.499
		C40.001,24.279,39.776,23.838,39.431,23.531z M27.588,21.52c0.057-0.336,0.404-0.631,0.745-0.631h8.89
		c0.341,0,0.688,0.295,0.745,0.631l0.265,1.59h-10.91L27.588,21.52z M35.557,19.778h-5.556v-1.666c0-0.308,0.249-0.557,0.556-0.557
		H35c0.307,0,0.557,0.249,0.557,0.557V19.778z M27.999,14.912c2.992-1.557,6.565-1.558,9.555-0.001
		c0.109,0.058,0.225,0.257,0.225,0.353v4.61c-0.179-0.059-0.364-0.096-0.555-0.096h-0.557v-1.666c0-0.919-0.747-1.667-1.667-1.667
		h-4.443c-0.919,0-1.667,0.748-1.667,1.667v1.666h-0.556c-0.191,0-0.377,0.037-0.557,0.096v-4.609
		C27.778,15.167,27.895,14.968,27.999,14.912z M38.89,32.277c0,0.096-0.217,0.279-0.556,0.279c-0.355,0-0.756-0.314-0.843-0.66
		l-0.016-0.064c-0.21-0.84-1.053-1.498-1.919-1.498h-5.556c-0.867,0-1.71,0.658-1.92,1.496l-0.018,0.068
		c-0.085,0.344-0.486,0.658-0.841,0.658c-0.338,0-0.557-0.184-0.557-0.279v-7.499c0-0.308,0.25-0.556,0.557-0.556h11.112
		c0.307,0,0.556,0.248,0.556,0.556L38.89,32.277L38.89,32.277z"/>
	<path fill="#777777" d="M17.222,12C13.239,12,10,15.24,10,19.222s3.239,7.222,7.222,7.222c3.982,0,7.223-3.24,7.223-7.222
		S21.205,12,17.222,12z M17.222,25.334c-3.37,0-6.111-2.742-6.111-6.112s2.741-6.111,6.111-6.111s6.111,2.742,6.111,6.112
		C23.333,22.592,20.592,25.334,17.222,25.334z"/>
	<path fill="#777777" d="M20.556,18.667h-2.778v-2.778c0-0.307-0.249-0.556-0.556-0.556s-0.556,0.249-0.556,0.556v2.778h-2.778
		c-0.307,0-0.556,0.249-0.556,0.556s0.249,0.556,0.556,0.556h2.778v2.778c0,0.308,0.249,0.556,0.556,0.556s0.556-0.248,0.556-0.556
		v-2.778h2.778c0.307,0,0.556-0.249,0.556-0.556S20.863,18.667,20.556,18.667z"/>
</g>
</svg>
