<?xml version="1.0" encoding="utf-8"?>
<!-- Generator: Adobe Illustrator 15.0.0, SVG Export Plug-In . SVG Version: 6.00 Build 0)  -->
<!DOCTYPE svg PUBLIC "-//W3C//DTD SVG 1.1//EN" "http://www.w3.org/Graphics/SVG/1.1/DTD/svg11.dtd">
<svg version="1.1" id="Layer_1" xmlns="http://www.w3.org/2000/svg" xmlns:xlink="http://www.w3.org/1999/xlink" x="0px" y="0px"
	 width="30px" height="30px" viewBox="0 0 30 30" enable-background="new 0 0 30 30" xml:space="preserve">
<path fill="#777777" d="M28.877,12.112l-0.587-1.766c-0.064-0.188-0.165-0.364-0.291-0.525V4.989
	c-0.002-0.452-0.31-0.969-0.723-1.204C20.625,0.07,12.359,0.07,5.703,3.787C5.294,4.02,4.986,4.536,4.985,4.991v4.83
	c-0.127,0.161-0.228,0.337-0.291,0.525l-0.588,1.766c-0.643,0.168-1.122,0.75-1.122,1.446v6.755c0,0.689,0.673,1.25,1.5,1.25h1.001
	c0.78,0,1.54-0.593,1.728-1.346l0.016-0.062c0.078-0.31,0.438-0.593,0.758-0.593h17.01c0.319,0,0.68,0.283,0.759,0.595l0.014,0.057
	c0.188,0.757,0.948,1.35,1.729,1.35h1c0.827,0,1.501-0.561,1.501-1.25v-6.755C30,12.861,29.521,12.28,28.877,12.112z M6.485,10.056
	h20.013c0.334,0,0.736,0.289,0.842,0.607l0.465,1.395H5.179l0.464-1.395C5.75,10.345,6.15,10.056,6.485,10.056z M14.991,9.055H8.987
	V7.554c0-0.275,0.225-0.5,0.5-0.5h5.003c0.275,0,0.5,0.224,0.5,0.5V9.055z M23.996,9.055h-6.005V7.554c0-0.275,0.226-0.5,0.501-0.5
	h5.004c0.275,0,0.5,0.224,0.5,0.5V9.055z M6.194,4.659c6.352-3.546,14.242-3.546,20.591-0.001c0.105,0.06,0.213,0.245,0.213,0.333
	v4.147c-0.163-0.05-0.333-0.083-0.5-0.083h-1.501V7.554c0-0.827-0.674-1.5-1.501-1.5h-5.004c-0.828,0-1.501,0.673-1.501,1.5v1.501
	H15.99V7.554c0-0.827-0.672-1.5-1.5-1.5H9.487c-0.828,0-1.5,0.673-1.5,1.5v1.501H6.485c-0.167,0-0.336,0.032-0.499,0.083V4.992
	C5.986,4.902,6.092,4.717,6.194,4.659z M28.999,20.312c0,0.085-0.196,0.251-0.5,0.251h-1c-0.32,0-0.682-0.281-0.759-0.594
	l-0.015-0.059c-0.189-0.758-0.948-1.351-1.729-1.351H7.987c-0.781,0-1.54,0.593-1.729,1.351l-0.016,0.06
	c-0.077,0.312-0.438,0.593-0.758,0.593H4.484c-0.305,0-0.5-0.166-0.5-0.251v-6.755c0-0.275,0.225-0.5,0.5-0.5h24.015
	c0.276,0,0.5,0.224,0.5,0.5V20.312z"/>
</svg>
