<?xml version="1.0" encoding="utf-8"?>
<!-- Generator: Adobe Illustrator 15.0.0, SVG Export Plug-In . SVG Version: 6.00 Build 0)  -->
<!DOCTYPE svg PUBLIC "-//W3C//DTD SVG 1.1//EN" "http://www.w3.org/Graphics/SVG/1.1/DTD/svg11.dtd">
<svg version="1.1" id="Layer_1" xmlns="http://www.w3.org/2000/svg" xmlns:xlink="http://www.w3.org/1999/xlink" x="0px" y="0px"
	 width="35.333px" height="30px" viewBox="-5.333 0 35.333 30" enable-background="new -5.333 0 35.333 30" xml:space="preserve">
<path fill="#777777" d="M28.877,12.112l-0.587-1.766c-0.063-0.188-0.165-0.364-0.291-0.525V4.989
	c-0.002-0.452-0.31-0.969-0.724-1.204C20.625,0.07,12.359,0.07,5.703,3.787C5.294,4.02,4.986,4.536,4.985,4.991v4.83
	c-0.127,0.161-0.228,0.337-0.291,0.525l-0.588,1.766c-0.643,0.168-1.122,0.75-1.122,1.446v6.754c0,0.689,0.673,1.25,1.5,1.25h1.001
	c0.78,0,1.54-0.592,1.728-1.346l0.016-0.062c0.078-0.309,0.438-0.592,0.758-0.592h17.01c0.319,0,0.68,0.283,0.759,0.595l0.014,0.057
	c0.188,0.757,0.948,1.351,1.729,1.351h1c0.827,0,1.501-0.562,1.501-1.25v-6.755C30,12.861,29.521,12.28,28.877,12.112z
	 M6.485,10.056h20.013c0.334,0,0.736,0.289,0.842,0.607l0.465,1.395H5.179l0.464-1.395C5.75,10.345,6.15,10.056,6.485,10.056z
	 M14.991,9.055H8.987V7.554c0-0.275,0.225-0.5,0.5-0.5h5.003c0.275,0,0.5,0.224,0.5,0.5L14.991,9.055L14.991,9.055z M23.996,9.055
	h-6.005V7.554c0-0.275,0.226-0.5,0.501-0.5h5.004c0.275,0,0.5,0.224,0.5,0.5V9.055z M6.194,4.659
	c6.352-3.546,14.242-3.546,20.591-0.001c0.105,0.06,0.213,0.245,0.213,0.333v4.147c-0.163-0.05-0.333-0.083-0.5-0.083h-1.501V7.554
	c0-0.827-0.674-1.5-1.501-1.5h-5.004c-0.828,0-1.501,0.673-1.501,1.5v1.501H15.99V7.554c0-0.827-0.672-1.5-1.5-1.5H9.487
	c-0.828,0-1.5,0.673-1.5,1.5v1.501H6.485c-0.167,0-0.336,0.032-0.499,0.083V4.992C5.986,4.902,6.092,4.717,6.194,4.659z
	 M28.999,20.312c0,0.084-0.196,0.25-0.5,0.25h-1c-0.319,0-0.683-0.28-0.759-0.594l-0.016-0.059
	c-0.188-0.758-0.947-1.352-1.729-1.352H7.987c-0.781,0-1.54,0.594-1.729,1.352l-0.016,0.061c-0.077,0.312-0.438,0.592-0.758,0.592
	h-1c-0.305,0-0.5-0.166-0.5-0.25v-6.755c0-0.275,0.225-0.5,0.5-0.5h24.015c0.276,0,0.5,0.224,0.5,0.5V20.312z"/>
<path fill="#777777" d="M-2.598,3.481l1.006,0.37L-2.2,4.668c-0.202,0.271-0.146,0.656,0.125,0.857
	c0.11,0.082,0.239,0.122,0.366,0.122c0.188,0,0.373-0.085,0.493-0.247l0.605-0.814l0.602,0.807c0.12,0.162,0.305,0.246,0.492,0.246
	c0.127,0,0.256-0.039,0.365-0.121C1.12,5.314,1.177,4.932,0.975,4.659L0.372,3.852l1.006-0.37c0.318-0.117,0.481-0.47,0.363-0.787
	C1.626,2.376,1.273,2.213,0.954,2.33L0.003,2.68V1.613C0.003,1.274-0.271,1-0.61,1c-0.338,0-0.613,0.274-0.613,0.613V2.68
	l-0.951-0.35c-0.319-0.118-0.67,0.045-0.788,0.364C-3.079,3.012-2.916,3.364-2.598,3.481z"/>
</svg>
