<?xml version="1.0" encoding="utf-8"?>
<!-- Generator: Adobe Illustrator 15.0.0, SVG Export Plug-In . SVG Version: 6.00 Build 0)  -->
<!DOCTYPE svg PUBLIC "-//W3C//DTD SVG 1.1//EN" "http://www.w3.org/Graphics/SVG/1.1/DTD/svg11.dtd">
<svg version="1.1" id="Layer_1" xmlns="http://www.w3.org/2000/svg" xmlns:xlink="http://www.w3.org/1999/xlink" x="0px" y="0px"
	 width="30px" height="30px" viewBox="10 10 30 30" enable-background="new 10 10 30 30" xml:space="preserve">
<g>
	<path fill="#777777" d="M39.404,22.374l-0.381-2.29c-0.031-0.188-0.099-0.365-0.184-0.532v-5.809c0-0.538-0.366-1.136-0.854-1.394
		c-3.458-1.8-7.588-1.799-11.05,0.002c-0.484,0.256-0.851,0.854-0.851,1.393v5.808c-0.084,0.167-0.151,0.343-0.183,0.531
		l-0.382,2.29c-0.362,0.319-0.595,0.781-0.595,1.3v7.827c0,0.8,0.78,1.45,1.74,1.45c0.904,0,1.784-0.688,2.003-1.562l0.018-0.071
		c0.09-0.36,0.508-0.686,0.878-0.686h5.798c0.37,0,0.789,0.325,0.879,0.687l0.017,0.067c0.22,0.877,1.1,1.565,2.004,1.565
		c0.959,0,1.739-0.65,1.739-1.45v-7.827C40,23.154,39.767,22.693,39.404,22.374z M27.046,20.274c0.059-0.351,0.422-0.66,0.778-0.66
		h9.277c0.355,0,0.719,0.309,0.777,0.66l0.277,1.66H26.77L27.046,20.274z M35.361,18.456h-5.798v-1.739c0-0.32,0.26-0.58,0.58-0.58
		h4.638c0.32,0,0.58,0.26,0.58,0.58V18.456z M27.475,13.378c3.123-1.625,6.853-1.625,9.972-0.002
		c0.113,0.06,0.233,0.268,0.234,0.369v4.811c-0.187-0.061-0.38-0.1-0.579-0.1h-0.58v-1.739c0-0.959-0.781-1.74-1.74-1.74h-4.638
		c-0.96,0-1.739,0.78-1.739,1.74v1.739h-0.58c-0.2,0-0.394,0.039-0.579,0.1v-4.81C27.245,13.644,27.365,13.436,27.475,13.378z
		 M38.84,31.501c0,0.1-0.226,0.29-0.579,0.29c-0.37,0-0.789-0.327-0.879-0.688l-0.018-0.066c-0.219-0.877-1.099-1.564-2.003-1.564
		h-5.798c-0.904,0-1.784,0.688-2.003,1.562l-0.018,0.072c-0.09,0.358-0.509,0.686-0.878,0.686c-0.354,0-0.58-0.19-0.58-0.29v-7.827
		c0-0.32,0.26-0.58,0.58-0.58h11.596c0.319,0,0.579,0.26,0.579,0.58V31.501z"/>
</g>
<path fill="#777777" d="M18.018,13.481l1.006,0.37l-0.608,0.817c-0.202,0.271-0.146,0.656,0.125,0.858
	c0.11,0.082,0.239,0.122,0.366,0.122c0.188,0,0.373-0.085,0.493-0.248l0.606-0.814l0.601,0.806c0.121,0.162,0.305,0.247,0.493,0.247
	c0.127,0,0.255-0.04,0.366-0.122c0.271-0.203,0.328-0.586,0.125-0.858l-0.602-0.808l1.005-0.37c0.318-0.117,0.481-0.469,0.364-0.787
	c-0.116-0.318-0.468-0.481-0.787-0.364l-0.951,0.35v-1.066c0-0.339-0.275-0.613-0.613-0.613c-0.339,0-0.614,0.274-0.614,0.613v1.066
	l-0.951-0.35c-0.319-0.118-0.67,0.045-0.788,0.364C17.537,13.012,17.7,13.364,18.018,13.481z"/>
</svg>
