<?xml version="1.0" encoding="utf-8"?>
<!-- Generator: Adobe Illustrator 15.0.0, SVG Export Plug-In . SVG Version: 6.00 Build 0)  -->
<!DOCTYPE svg PUBLIC "-//W3C//DTD SVG 1.1//EN" "http://www.w3.org/Graphics/SVG/1.1/DTD/svg11.dtd">
<svg version="1.1" id="Layer_1" xmlns="http://www.w3.org/2000/svg" xmlns:xlink="http://www.w3.org/1999/xlink" x="0px" y="0px"
	 width="30px" height="30px" viewBox="0 0 30 30" enable-background="new 0 0 30 30" xml:space="preserve">
<g>
	<path fill="#777777" d="M29.404,12.374l-0.381-2.29c-0.031-0.188-0.1-0.365-0.185-0.532V3.744c0-0.538-0.366-1.136-0.854-1.394
		c-3.457-1.8-7.588-1.799-11.049,0.002c-0.484,0.256-0.852,0.854-0.852,1.393v5.808C16,9.72,15.934,9.896,15.9,10.084l-0.381,2.29
		c-0.362,0.319-0.596,0.781-0.596,1.3v7.827c0,0.8,0.78,1.45,1.74,1.45c0.904,0,1.784-0.688,2.003-1.562l0.019-0.07
		c0.09-0.36,0.508-0.687,0.877-0.687h5.799c0.369,0,0.789,0.325,0.879,0.687l0.017,0.067c0.22,0.878,1.101,1.565,2.004,1.565
		c0.96,0,1.739-0.65,1.739-1.45v-7.827C30,13.154,29.768,12.693,29.404,12.374z M17.046,10.274c0.06-0.351,0.422-0.66,0.778-0.66
		h9.277c0.354,0,0.719,0.309,0.776,0.66l0.276,1.66H16.77L17.046,10.274z M25.361,8.456h-5.799v-1.74c0-0.32,0.261-0.58,0.58-0.58
		h4.639c0.32,0,0.58,0.26,0.58,0.58V8.456z M17.475,3.378c3.123-1.625,6.854-1.625,9.973-0.002c0.113,0.06,0.232,0.268,0.234,0.369
		v4.811c-0.188-0.061-0.381-0.1-0.58-0.1h-0.58v-1.74c0-0.959-0.78-1.74-1.739-1.74h-4.638c-0.961,0-1.74,0.78-1.74,1.74v1.739
		h-0.579c-0.2,0-0.394,0.039-0.579,0.1v-4.81C17.245,3.644,17.365,3.436,17.475,3.378z M28.84,21.501c0,0.101-0.226,0.29-0.579,0.29
		c-0.37,0-0.788-0.327-0.879-0.688l-0.018-0.066c-0.22-0.877-1.099-1.564-2.003-1.564h-5.799c-0.903,0-1.783,0.688-2.002,1.562
		l-0.019,0.072c-0.09,0.357-0.509,0.686-0.878,0.686c-0.354,0-0.58-0.189-0.58-0.29v-7.827c0-0.32,0.26-0.58,0.58-0.58H28.26
		c0.319,0,0.579,0.26,0.579,0.58L28.84,21.501L28.84,21.501z"/>
</g>
</svg>
